# xmcd
#
# Track frame offsets:
#	150
#	18020
#	64402
#	104744
#
# Disc length: 1675 seconds
#
# Revision: 1
# Processed by: cddbd v1.5.2PL0 Copyright (c) Steve Scherf et al.
# Submitted via: audiograbber 1.83.01
#
DISCID=30068904
DTITLE=ATB with Heather Nova - Renegade
DYEAR=2007
DGENRE=Trance
TTITLE0=Renegade (Airplay Mix)
TTITLE1=A&T Mix
TTITLE2=Ronski Speed Remix
TTITLE3=The Video
EXTD=
EXTT0=
EXTT1=
EXTT2=
EXTT3=
PLAYORDER=
